<svg width="160" height="40" viewBox="0 0 160 40" fill="none" xmlns="http://www.w3.org/2000/svg">
<path fill-rule="evenodd" clip-rule="evenodd" d="M4.19899 25.7065C4.23237 26.3238 4.25982 26.7809 4.35601 27.2324C4.40249 27.4525 4.25372 27.9376 3.65866 27.8306C3.3274 27.7712 2.99452 27.642 2.74239 27.4291C2.47518 27.2054 2.33503 26.8852 2.24046 26.5588C2.0323 25.8128 1.57739 23.5756 2.96634 23.6068C3.27823 23.6138 3.54364 23.7488 3.73493 23.9861C4.10639 24.4545 4.16687 25.132 4.19899 25.7065ZM42.0967 16.368C42.0967 16.368 40.7614 5.28975 31.2349 2.29062C25.9199 0.616112 23.271 1.12069 20.0185 1.68961C16.1964 2.35551 11.6096 3.97947 8.31308 6.79004C6.06205 8.70778 3.79056 11.6103 2.92148 15.261C2.4506 17.2413 2.39892 19.1472 2.75943 21.2184C2.89115 21.9701 3.95422 22.6676 3.96481 21.4424C4.08504 7.81245 15.3162 5.27918 15.7124 5.19834C15.8586 5.17127 15.9991 5.14277 16.1249 5.108C16.3017 5.06623 16.5054 5.03397 16.6694 5.0605C16.769 5.07735 16.858 5.26322 16.7021 5.33725C15.8012 5.76565 12.3043 6.94939 10.4024 8.61475C8.4771 10.3097 5.9481 13.028 5.15654 17.7233C5.02159 18.5328 4.89077 22.685 5.27731 25.6079C5.50019 27.2896 6.65047 29.564 7.41834 30.5451C9.47969 33.176 13.04 35.4159 14.9791 36.1017C16.214 36.5388 17.7102 36.6715 18.472 36.8488C18.741 36.912 18.7078 37.2424 18.4373 37.2832C17.2056 37.4804 14.2334 36.7987 11.7727 35.5924C9.92653 34.6867 8.65512 33.44 7.41116 32.0964C6.04213 30.618 5.31105 29.0781 4.80284 29.1823C3.96732 29.3527 4.67705 31.1344 5.04564 31.8222C6.30844 34.1769 8.83906 36.2205 10.0979 36.905C14.036 39.0506 18.0185 39.1003 19.8279 38.9481C27.5682 38.2953 32.3258 34.5833 34.4363 31.6763C35.67 29.9722 38.4347 26.3812 38.3702 21.1325C38.3611 20.2956 38.4368 14.4852 36.5278 11.4551C36.0973 10.7652 34.7925 7.93649 29.8775 5.52313C29.4966 5.33582 27.8165 4.49068 26.4434 4.45286C25.8621 4.43744 24.6955 4.38994 24.8045 3.70325C24.8816 3.22001 27.7476 3.8574 28.0477 3.94111C30.1137 4.50842 32.7583 6.09259 34.5876 7.48712C40.2762 11.8232 39.7052 21.0135 39.7052 21.0135C39.4629 30.7895 33.742 34.9271 29.6276 37.3716C29.5472 37.4177 29.2527 37.7936 29.3483 37.9405C29.4454 38.0881 29.6423 38.0712 29.8391 38.0535C31.4188 37.8955 32.9562 36.7226 34.2701 35.6932C41.0575 30.3791 41.4031 26.2321 41.7828 24.6689C42.3336 22.3964 42.3596 17.805 42.0967 16.368Z" fill="#C8102E"/>
<path fill-rule="evenodd" clip-rule="evenodd" d="M31.7366 18.9966C31.5413 18.9215 31.3644 18.8536 31.2217 18.7953C30.7049 18.5856 29.4308 18.2506 28.4074 17.9808C27.8398 17.8317 27.2524 17.677 27.1419 17.6322C27.0305 17.4657 26.7841 16.3963 26.6644 15.8776C26.6032 15.6094 26.554 15.3979 26.5269 15.3067C26.434 14.9808 26.3173 14.798 26.0004 14.8322C25.9993 14.8322 25.9758 14.8342 25.9739 14.8342C25.8619 14.8505 24.3444 15.2357 21.8589 15.8677C20.1875 16.2931 18.4595 16.7324 18.3506 16.7512C18.2115 16.7707 18.1308 16.8462 17.0447 18.5451C16.7192 19.0549 16.3138 19.6896 16.2489 19.7575C16.2105 19.7826 15.9799 19.8887 15.7365 20.0016C15.0458 20.3212 13.7611 20.9172 12.6599 21.5473C11.4432 22.2449 9.10206 23.7294 8.92674 24.0603C8.86124 24.1834 8.8598 24.3105 8.92117 24.4086C9.0039 24.5414 9.18856 24.6056 9.41502 24.5817C9.46348 24.5765 9.51462 24.5676 9.56576 24.5541C9.79887 24.4939 17.2039 23.0182 21.4513 22.3175C22.5126 22.1424 23.8531 21.9701 25.4334 21.8038C29.324 21.3956 33.2422 21.1736 33.4692 21.1976C33.6989 21.2241 33.9318 21.1307 34.091 20.9499C34.2212 20.8029 34.2902 20.6165 34.2846 20.4239C34.2724 20.0439 33.4539 19.6611 31.7366 18.9966Z" fill="white"/>
<path fill-rule="evenodd" clip-rule="evenodd" d="M148.935 26.6636H149.375L149.788 27.8316H149.797L150.206 26.6636H150.65V28.186H150.361V26.9158H150.352L149.906 28.186H149.676L149.232 26.9158H149.224V28.186H148.935V26.6636ZM147.508 26.6636H148.711V26.9089H148.254V28.186H147.965V26.9089H147.508V26.6636ZM57.2967 21.9974C57.9496 21.2713 59.1081 21.4111 60.1218 21.1308C61.8914 20.642 64.651 19.3587 64.5763 17.1072C64.5099 15.1433 62.6092 13.9871 60.3851 13.6526C58.8187 19.0085 56.1852 23.777 53.6715 28.4343C52.9117 29.8448 52.1648 31.9211 50.1939 32.0844C49.2205 31.2465 49.5498 30.0317 49.7006 29.1656C50.1444 26.6409 51.3253 23.9042 52.3611 21.7074C53.8157 18.6147 55.8258 15.7229 57.8566 13.5076C56.9414 13.5361 56.3668 13.6634 55.6919 13.2381C55.0994 10.6417 57.8263 10.0893 59.7051 9.97292C64.0477 9.70226 68.4245 12.1687 68.3156 16.6283C68.2273 20.2403 64.33 22.6106 60.6464 22.9085C59.6122 22.9931 58.019 23.1218 57.2967 21.9974ZM121.018 18.792C121.679 17.5041 122.118 16.3403 122.825 14.7495C123.136 14.0484 124.889 10.8471 123.226 10.4427C123.2 10.4356 123.124 10.4334 123.099 10.4427C120.272 11.2352 118.248 16.6435 116.493 18.8859C114.335 18.8339 111.708 18.6624 111.818 20.2453C111.906 21.5373 113.798 21.792 114.893 22.4228C114.491 23.6825 112.077 28.7254 114.136 30.0229C116.295 31.3829 117.421 28.2153 117.909 26.8827C118.52 25.2075 118.978 23.7198 119.685 22.4584C121.388 22.336 123.267 21.7553 124.661 21.735C124.288 23.2127 123.464 25.2717 124.355 27.1806C125.936 28.1943 127.114 27.0871 127.664 26.0665C128.539 24.4425 128.671 21.5511 129.324 20.2483C130.341 19.6385 131.934 19.5681 132.182 18.2404C131.598 17.6701 130.689 18.2573 129.913 18.2252C130.125 17.1605 130.659 16.0359 131.028 14.938C131.391 13.8518 132.106 12.52 131.238 11.3893C129.474 11.687 128.722 13.2891 127.973 14.5329C127.146 15.9047 126.484 17.3845 125.671 18.6995C124.103 18.7153 122.698 18.8814 121.018 18.792ZM77.1607 10.8629C75.2431 10.2373 72.0799 11.7397 71.0585 13.2243C70.4026 14.1777 70.175 16.0497 71.4439 16.3974C73.0391 16.8335 74.2441 15.0068 74.9221 14.2685C75.9593 13.1398 76.8668 12.3596 77.1607 10.8629ZM150.815 13.5623C149.255 13.1569 148.611 14.3476 147.697 15.4401C146.96 16.3198 146.51 17.2064 146.088 17.3295C145.048 17.6373 143.417 16.6667 142.529 16.9235C142.229 17.0087 141.741 17.4132 141.729 17.9314C141.697 19.2867 143.345 19.4941 144.671 19.9809C144.082 21.2543 143.315 22.8119 142.904 24.5312C142.526 26.1168 142.102 28.4434 142.988 30.1102C144.071 29.9337 144.327 28.6488 144.689 27.8388C145.942 25.0496 147.118 22.1526 148.683 19.757C151.143 19.5912 153.681 18.9017 155.625 18.413C156.323 18.2394 157.317 18.3103 157.568 17.5408C157.063 16.9423 156.075 17.1528 155.268 17.1445C153.353 17.1196 151.287 17.2553 149.985 17.2309C150.443 16.2632 151.759 15.0888 150.815 13.5623ZM99.1711 22.6873C99.6362 20.7814 101.355 20.0497 103.321 19.5493C103.854 19.5722 103.091 20.1161 103.141 20.4348C103.014 20.7836 102.828 21.0756 102.858 21.5719C101.639 21.9549 100.787 22.6775 99.1711 22.6873ZM89.2349 24.3882C90.381 23.3547 91.3156 22.3477 92.6177 21.118C93.4967 20.2867 95.8622 18.8552 95.1822 17.0796C94.8122 16.1166 93.1315 15.916 91.9363 15.9144C90.2283 15.9129 88.0519 16.4419 86.307 16.3806C85.69 16.3587 85.1316 15.8577 84.6587 16.2417C83.0672 19.5661 88.0943 19.346 90.5605 19.0748C88.7732 21.0026 85.6249 22.1797 84.0678 24.3504C83.6602 24.9153 83.147 25.8155 83.5115 26.7537C84.1771 27.2834 84.9349 26.9191 85.6633 26.8942C88.9706 26.7935 92.7604 27.8767 95.2215 26.715C95.7247 26.4769 96.0372 26.0414 96.5227 25.7085C99.5372 26.6728 101.677 24.9609 103.435 23.9854C104.5 25.4158 108.843 25.5092 109.2 23.6479C108.514 22.486 106.631 23.1417 106.283 21.8524C105.92 20.5186 108.204 18.6025 106.778 17.1666C106.22 16.785 105.61 17.3749 105.265 17.1538C100.944 16.614 96.444 18.9619 95.3495 22.1526C95.0564 22.9972 95.266 24.0752 95.4419 24.8146C93.6076 25.5726 91.237 24.6594 89.2349 24.3882ZM71.6765 17.667C71.0877 17.3973 70.8377 17.5781 70.563 17.9126C68.7931 20.0528 64.766 23.3844 65.1296 26.8716C65.2615 28.1197 65.9793 29.7028 67.5882 29.1717C68.062 28.7535 67.8709 28.1912 68.0927 27.6546C69.3801 24.5094 73.104 22.3048 71.6765 17.667ZM83.5953 18.6423C82.1423 18.1241 79.6877 18.4575 77.5259 18.3442C75.5893 18.2404 73.0646 17.5347 73.1889 19.199C73.3352 21.168 77.2912 20.9607 79.3622 20.7647C77.9045 22.1118 76.1791 23.4181 74.5314 24.7872C73.0922 25.9815 70.4742 27.3981 71.1889 30.0848C72.804 30.9998 74.7194 30.0801 76.851 30C80.8662 29.8519 84.2941 31.0515 88.12 30.7186C89.6142 30.5872 91.9568 30.0887 91.8396 28.463C90.9915 27.9654 90.2728 28.4865 89.4563 28.5727C85.5303 28.9889 81.8306 26.7998 77.3656 27.0882C78.5156 25.8933 80.0294 24.6988 81.3473 23.4427C82.5478 22.2966 84.3341 20.8524 83.5953 18.6423ZM133.81 25.7318C134.321 24.2403 134.955 20.7952 132.855 20.2729C132.138 20.0953 131.152 20.3005 130.627 20.7626C130.628 21.5464 131.497 21.3826 131.499 22.1654C130.962 23.7565 128.704 26.7255 130.637 28.4965C132.372 30.0878 135.221 28.1747 136.096 27.5234C136.764 27.0285 137.339 26.3576 137.883 26.2692C138.089 28.304 138.872 29.7078 140.709 29.9652C141.253 29.3723 140.789 28.6987 140.793 27.938C140.803 26.7277 141.219 25.3289 141.487 24.1415C141.769 22.8875 142.487 21.5072 141.55 20.3394C140.457 20.0972 139.995 21.0114 139.512 21.59C137.978 23.4267 136.308 24.8442 133.81 25.7318Z" fill="#231F20"/>
</svg>
